HIERARCHY
ROOT Hips
{
	OFFSET	0.00	0.00	0.00
	CHANNELS 6 Xposition Yposition Zposition Zrotation Xrotation Yrotation
	JOINT LeftUpperLeg
	{
		OFFSET	-0.060319	-0.072984	 0.002079
		CHANNELS 3 Zrotation Xrotation Yrotation
		JOINT LeftLowerLeg
		{
			OFFSET	 0.351798	-0.005146	-0.008011
			CHANNELS 3 Zrotation Xrotation Yrotation
			JOINT LeftFoot
			{
				OFFSET	 0.378666	 0.003778	 0.003828
				CHANNELS 3 Zrotation Xrotation Yrotation
				JOINT LeftToes
				{
					OFFSET	 0.084296	 0.003922	 0.047710
					CHANNELS 3 Zrotation Xrotation Yrotation
					End Site
					{
						OFFSET	 0.084296	 0.003922	 0.047710
					}
				}
			}
		}
	}
	JOINT RightUpperLeg
	{
		OFFSET	-0.060836	 0.072553	 0.002079
		CHANNELS 3 Zrotation Xrotation Yrotation
		JOINT RightLowerLeg
		{
			OFFSET	 0.351363	 0.018233	-0.008011
			CHANNELS 3 Zrotation Xrotation Yrotation
			JOINT RightFoot
			{
				OFFSET	 0.378545	 0.010315	 0.003824
				CHANNELS 3 Zrotation Xrotation Yrotation
				JOINT RightToes
				{
					OFFSET	 0.084392	-0.002027	 0.047660
					CHANNELS 3 Zrotation Xrotation Yrotation
					End Site
					{
						OFFSET	 0.084392	-0.002027	 0.047660
					}
				}
			}
		}
	}
	JOINT Character1_Spine
	{
		OFFSET	 0.022713	 0.000080	 0.008181
		CHANNELS 3 Zrotation Xrotation Yrotation
		JOINT Spine
		{
			OFFSET	 0.091343	 0.000000	 0.001755
			CHANNELS 3 Zrotation Xrotation Yrotation
			JOINT Chest
			{
				OFFSET	 0.087667	 0.000000	-0.000304
				CHANNELS 3 Zrotation Xrotation Yrotation
				JOINT LeftShoulder
				{
					OFFSET	 0.122367	-0.042227	-0.001395
					CHANNELS 3 Zrotation Xrotation Yrotation
					JOINT LeftUpperArm
					{
						OFFSET	 0.055437	-0.000001	 0.000000
						CHANNELS 3 Zrotation Xrotation Yrotation
						JOINT LeftLowerArm
						{
							OFFSET	 0.233777	-0.000011	 0.000017
							CHANNELS 3 Zrotation Xrotation Yrotation
							JOINT LeftHand
							{
								OFFSET	 0.162482	 0.000000	-0.000001
								CHANNELS 3 Zrotation Xrotation Yrotation
								JOINT LeftIndexProximal
								{
									OFFSET	 0.080750	 0.001428	 0.025713
									CHANNELS 3 Zrotation Xrotation Yrotation
									JOINT LeftIndexIntermediate
									{
										OFFSET	 0.024260	 0.001187	 0.002507
										CHANNELS 3 Zrotation Xrotation Yrotation
										JOINT LeftIndexDistal
										{
											OFFSET	 0.016097	 0.000458	 0.000118
											CHANNELS 3 Zrotation Xrotation Yrotation
											End Site
											{
												OFFSET	 0.016097	 0.000458	 0.000118
											}
										}
									}
								}
								JOINT LeftMiddleProximal
								{
									OFFSET	 0.080696	 0.006021	 0.005822
									CHANNELS 3 Zrotation Xrotation Yrotation
									JOINT LeftMiddleIntermediate
									{
										OFFSET	 0.025063	-0.003793	 0.001482
										CHANNELS 3 Zrotation Xrotation Yrotation
										JOINT LeftMiddleDistal
										{
											OFFSET	 0.019431	-0.000162	-0.000068
											CHANNELS 3 Zrotation Xrotation Yrotation
											End Site
											{
												OFFSET	 0.019431	-0.000162	-0.000068
											}
										}
									}
								}
								JOINT LeftLittleProximal
								{
									OFFSET	 0.065753	 0.002283	-0.027836
									CHANNELS 3 Zrotation Xrotation Yrotation
									JOINT LeftLittleIntermediate
									{
										OFFSET	 0.018097	 0.000014	 0.000133
										CHANNELS 3 Zrotation Xrotation Yrotation
										JOINT LeftLittleDistal
										{
											OFFSET	 0.013911	-0.000247	 0.000003
											CHANNELS 3 Zrotation Xrotation Yrotation
											End Site
											{
												OFFSET	 0.013911	-0.000247	 0.000003
											}
										}
									}
								}
								JOINT LeftRingProximal
								{
									OFFSET	 0.076793	 0.006246	-0.012626
									CHANNELS 3 Zrotation Xrotation Yrotation
									JOINT LeftRingIntermediate
									{
										OFFSET	 0.023683	-0.001098	-0.000754
										CHANNELS 3 Zrotation Xrotation Yrotation
										JOINT LeftRingDistal
										{
											OFFSET	 0.015907	 0.000860	 0.000167
											CHANNELS 3 Zrotation Xrotation Yrotation
											End Site
											{
												OFFSET	 0.015907	 0.000860	 0.000167
											}
										}
									}
								}
								JOINT LeftThumbProximal
								{
									OFFSET	 0.024761	-0.014236	 0.018266
									CHANNELS 3 Zrotation Xrotation Yrotation
									JOINT LeftThumbIntermediate
									{
										OFFSET	 0.032146	-0.001523	 0.001986
										CHANNELS 3 Zrotation Xrotation Yrotation
										JOINT LeftThumbDistal
										{
											OFFSET	 0.017566	-0.000085	-0.001004
											CHANNELS 3 Zrotation Xrotation Yrotation
											End Site
											{
												OFFSET	 0.017566	-0.000085	-0.001004
											}
										}
									}
								}
							}
						}
					}
				}
				JOINT Neck
				{
					OFFSET	 0.156851	-0.000286	 0.008298
					CHANNELS 3 Zrotation Xrotation Yrotation
					JOINT Head
					{
						OFFSET	 0.078083	 0.000000	-0.005534
						CHANNELS 3 Zrotation Xrotation Yrotation
						End Site
						{
							OFFSET	 0.078083	 0.000000	-0.005534
						}
					}
				}
				JOINT RightShoulder
				{
					OFFSET	 0.122455	 0.041994	-0.000150
					CHANNELS 3 Zrotation Xrotation Yrotation
					JOINT RightUpperArm
					{
						OFFSET	 0.055437	 0.000001	 0.000000
						CHANNELS 3 Zrotation Xrotation Yrotation
						JOINT RightLowerArm
						{
							OFFSET	 0.233779	 0.000012	 0.000017
							CHANNELS 3 Zrotation Xrotation Yrotation
							JOINT RightHand
							{
								OFFSET	 0.162480	-0.000002	-0.000001
								CHANNELS 3 Zrotation Xrotation Yrotation
								JOINT RightIndexProximal
								{
									OFFSET	 0.077459	-0.023877	 0.024774
									CHANNELS 3 Zrotation Xrotation Yrotation
									JOINT RightIndexIntermediate
									{
										OFFSET	 0.024233	 0.002008	-0.002230
										CHANNELS 3 Zrotation Xrotation Yrotation
										JOINT RightIndexDistal
										{
											OFFSET	 0.015886	 0.002643	 0.000001
											CHANNELS 3 Zrotation Xrotation Yrotation
											End Site
											{
												OFFSET	 0.015886	 0.002643	 0.000001
											}
										}
									}
								}
								JOINT RightMiddleProximal
								{
									OFFSET	 0.077341	-0.024111	 0.004360
									CHANNELS 3 Zrotation Xrotation Yrotation
									JOINT RightMiddleIntermediate
									{
										OFFSET	 0.025355	-0.001169	-0.000680
										CHANNELS 3 Zrotation Xrotation Yrotation
										JOINT RightMiddleDistal
										{
											OFFSET	 0.019416	 0.000705	-0.000417
											CHANNELS 3 Zrotation Xrotation Yrotation
											End Site
											{
												OFFSET	 0.019416	 0.000705	-0.000417
											}
										}
									}
								}
								JOINT RightLittleProximal
								{
									OFFSET	 0.065019	-0.010365	-0.027722
									CHANNELS 3 Zrotation Xrotation Yrotation
									JOINT RightLittleIntermediate
									{
										OFFSET	 0.018098	 0.000052	-0.000144
										CHANNELS 3 Zrotation Xrotation Yrotation
										JOINT RightLittleDistal
										{
											OFFSET	 0.013886	-0.000828	 0.000267
											CHANNELS 3 Zrotation Xrotation Yrotation
											End Site
											{
												OFFSET	 0.013886	-0.000828	 0.000267
											}
										}
									}
								}
								JOINT RightRingProximal
								{
									OFFSET	 0.074304	-0.019655	-0.013711
									CHANNELS 3 Zrotation Xrotation Yrotation
									JOINT RightRingIntermediate
									{
										OFFSET	 0.023458	 0.003508	-0.000008
										CHANNELS 3 Zrotation Xrotation Yrotation
										JOINT RightRingDistal
										{
											OFFSET	 0.015893	-0.000379	-0.001033
											CHANNELS 3 Zrotation Xrotation Yrotation
											End Site
											{
												OFFSET	 0.015893	-0.000379	-0.001033
											}
										}
									}
								}
								JOINT RightThumbProximal
								{
									OFFSET	 0.026339	 0.004527	 0.020861
									CHANNELS 3 Zrotation Xrotation Yrotation
									JOINT RightThumbIntermediate
									{
										OFFSET	 0.032030	-0.000602	 0.001128
										CHANNELS 3 Zrotation Xrotation Yrotation
										JOINT RightThumbDistal
										{
											OFFSET	 0.017586	-0.000153	 0.000511
											CHANNELS 3 Zrotation Xrotation Yrotation
											End Site
											{
												OFFSET	 0.017586	-0.000153	 0.000511
											}
										}
									}
								}
							}
						}
					}
				}
			}
		}
	}
}
MOTION
Frames:    4
Frame Time: 0.01666667
 14.744330	 1.868983	 0.866442	 104.624200	-16.595440	-103.592700	 163.883700	 3.948653	 0.158109	 1.130298	-2.677053	 56.976610	-5.823965	-2.529213	 16.167830	-2.826674	-1.476233	-62.555960	 178.623000	 8.815772	-38.431550	 2.650823	-7.556501	 23.092170	-11.856550	-16.243100	-29.063480	 0.003015	-0.006124	-62.519630	 0.203542	 0.000000	-4.902169	-6.729983	 3.101995	-1.344390	 4.403802	-24.247630	-2.229330	-90.076720	 18.104020	 7.945078	-62.198060	 11.947200	-13.531070	 2.168560	-5.691555	-93.342680	-7.758472	-9.463181	-23.138570	-16.219690	 12.799270	 22.847770	-46.760710	 0.086507	-0.447730	-65.113950	-0.034519	 0.299780	-10.500310	 8.459950	 11.111560	-71.727070	-5.008599	 6.021438	-87.601730	-12.307400	 14.793110	-14.355580	-15.167070	-3.905472	-30.397360	-0.130868	 17.520280	-88.562290	-25.462620	 30.191210	-40.601220	-13.944210	 3.045957	-37.013980	-1.283409	 11.655450	-106.240500	-29.309360	 19.132500	 111.737300	 49.854310	-126.325200	-19.032510	 0.543809	-9.628698	-25.348910	-0.976130	-0.758826	-1.704359	-1.811603	-7.700453	-1.174187	 0.037668	 23.135270	 87.488470	-18.021200	-2.637285	 75.404740	-1.085497	 18.092520	-1.346637	 11.332840	-74.390260	 7.768454	-2.126961	-7.462264	-172.226100	-9.401112	 172.519100	-57.539840	 2.064723	-6.422195	-73.080240	 1.300160	-5.111492	-164.908600	-8.457561	-173.687600	-64.331050	 2.051095	-9.780327	-90.408690	 6.371973	-8.306354	 175.410400	-28.034450	-171.238900	-26.573700	 4.412522	-17.509470	-84.322850	 32.402940	-38.465610	-135.153500	-22.770030	-160.790900	-17.684520	-0.625957	-13.850790	-92.644100	 20.687700	-23.982810	 49.687410	 53.766240	-56.528720	-20.810710	 3.803937	 8.623109	-30.770650	-2.362353	 9.390698
 14.826940	 1.767428	 0.853529	 102.617300	-16.594060	-103.597300	 164.663500	 5.674510	-11.938950	 0.721802	-2.400241	 79.732950	-7.783074	-2.460262	 12.709550	-2.826673	-1.476237	-62.555920	 175.256100	 6.271254	-34.159260	 3.601433	-7.231379	 25.460580	-12.083370	-11.686570	-31.433060	 0.003015	-0.006124	-62.519630	 0.203542	 0.000000	-4.902169	-6.716430	 3.104543	-1.214972	 4.306459	-23.344910	-2.025569	-90.589920	 18.065990	 8.104937	-62.169170	 10.611980	-8.616568	 2.124541	-6.046451	-95.245140	-7.325133	-9.677349	-21.135890	-16.219720	 12.799270	 22.847780	-46.760640	 0.086506	-0.447728	-65.114070	-0.034510	 0.299784	-10.500320	 8.459945	 11.111560	-71.727070	-5.008599	 6.021438	-87.601650	-12.307380	 14.793110	-14.355530	-15.167060	-3.905438	-30.397360	-0.130865	 17.520280	-88.562390	-25.462670	 30.191220	-40.601220	-13.944220	 3.045887	-37.014050	-1.283418	 11.655470	-106.240500	-29.309360	 19.132500	 111.737200	 49.854270	-126.325200	-19.032520	 0.543811	-9.628700	-25.348830	-0.976132	-0.758807	-1.704242	-1.811634	-7.700604	-1.174415	 0.037696	 23.135440	 87.798290	-18.034130	-2.388579	 75.677250	-2.197877	 16.379430	-1.270644	 10.889040	-83.579730	 7.294007	-1.995905	-7.528368	-172.226100	-9.401119	 172.519000	-57.539710	 2.064707	-6.422182	-73.080210	 1.300154	-5.111494	-164.908700	-8.457569	-173.687700	-64.331160	 2.051112	-9.780338	-90.408720	 6.371981	-8.306355	 175.410400	-28.034440	-171.239000	-26.573720	 4.412529	-17.509480	-84.322920	 32.403000	-38.465630	-135.153500	-22.769990	-160.790800	-17.684630	-0.625943	-13.850830	-92.643940	 20.687620	-23.982800	 49.687410	 53.766240	-56.528720	-20.810710	 3.803937	 8.623109	-30.770670	-2.362356	 9.390705
 14.905540	 1.664317	 0.836244	 100.617900	-16.594350	-103.596800	 166.062700	 7.555928	-25.255880	 0.087165	-2.013737	 97.234040	-10.453230	-2.281958	 9.729129	-2.826665	-1.476251	-62.555750	 173.674000	 4.441926	-33.863350	 4.324061	-6.375997	 35.066650	-13.364270	-8.022795	-36.552250	 0.003015	-0.006124	-62.519630	 0.203542	 0.000000	-4.902169	-6.683109	 3.111560	-0.924468	 4.078275	-21.202530	-1.504014	-90.930570	 18.039990	 8.211194	-62.570980	 9.216722	-1.972578	 2.136242	-6.260808	-96.677240	-6.827466	-9.828202	-19.173790	-16.219680	 12.799290	 22.847860	-46.760670	 0.086505	-0.447727	-65.114020	-0.034512	 0.299781	-10.500320	 8.459943	 11.111550	-71.727070	-5.008597	 6.021437	-87.601790	-12.307410	 14.793110	-14.355530	-15.167060	-3.905438	-30.397320	-0.130853	 17.520260	-88.562390	-25.462670	 30.191220	-40.601220	-13.944210	 3.045957	-37.013940	-1.283401	 11.655440	-106.240500	-29.309360	 19.132500	 111.737200	 49.854290	-126.325200	-19.032550	 0.543811	-9.628705	-25.348870	-0.976131	-0.758816	-1.704245	-1.811665	-7.700626	-1.174429	 0.037747	 23.135440	 88.073310	-18.044540	-2.167768	 75.851910	-4.201810	 13.681860	-0.861251	 9.800076	-94.806340	 6.838909	-1.600099	-7.819085	-172.226200	-9.401114	 172.519000	-57.539900	 2.064734	-6.422198	-73.080140	 1.300148	-5.111489	-164.908700	-8.457560	-173.687700	-64.331140	 2.051110	-9.780336	-90.408620	 6.371965	-8.306351	 175.410400	-28.034440	-171.239000	-26.573840	 4.412558	-17.509540	-84.322800	 32.402930	-38.465620	-135.153500	-22.770100	-160.791200	-17.684570	-0.625951	-13.850810	-92.643880	 20.687600	-23.982790	 49.687470	 53.766200	-56.528810	-20.810780	 3.803928	 8.623139	-30.770610	-2.362346	 9.390683
 15.054770	 1.445883	 0.828176	 96.618320	-16.594640	-103.596200	 168.524800	 9.168763	-38.951730	 0.837822	-0.581653	 96.159420	-14.073900	-2.398857	-4.111230	-2.826674	-1.476235	-62.555940	 173.135200	 3.298249	-31.702780	 4.378554	-5.732553	 42.491520	-14.847160	-5.853969	-40.762030	 0.003015	-0.006124	-62.519630	 0.203542	 0.000000	-4.902169	-6.651680	 3.119650	-0.644828	 3.826615	-19.143790	-1.032743	-91.129620	 18.024510	 8.273328	-63.255900	 8.198548	 3.571689	 2.138667	-6.346076	-97.438180	-6.356847	-9.967665	-17.216570	-16.219670	 12.799270	 22.847770	-46.760640	 0.086506	-0.447728	-65.114020	-0.034512	 0.299781	-10.500310	 8.459937	 11.111520	-71.727070	-5.008597	 6.021437	-87.601790	-12.307410	 14.793110	-14.355630	-15.167080	-3.905462	-30.397320	-0.130853	 17.520260	-88.562420	-25.462680	 30.191230	-40.601290	-13.944230	 3.045877	-37.014040	-1.283415	 11.655470	-106.240400	-29.309330	 19.132510	 111.737200	 49.854290	-126.325200	-19.032510	 0.543809	-9.628698	-25.348910	-0.976130	-0.758826	-1.704206	-1.811596	-7.700775	-1.174371	 0.037617	 23.135470	 88.234120	-18.050150	-2.038694	 75.412360	-4.102059	 9.844025	-0.170278	 10.972260	-102.970700	 6.341543	-0.940266	-8.293187	-172.226200	-9.401131	 172.519100	-57.539940	 2.064733	-6.422204	-73.080100	 1.300146	-5.111493	-164.908700	-8.457583	-173.687600	-64.331210	 2.051121	-9.780344	-90.408620	 6.371964	-8.306353	 175.410400	-28.034450	-171.238900	-26.573860	 4.412564	-17.509550	-84.322870	 32.402960	-38.465610	-135.153400	-22.770050	-160.791000	-17.684630	-0.625943	-13.850830	-92.643840	 20.687580	-23.982790	 49.687520	 53.766200	-56.528900	-20.810800	 3.803925	 8.623148	-30.770650	-2.362352	 9.390697
